0
SECTION
2
HEADER
9
$INSUNITS
70
4
9
$ACADVER
1
AC1014
9
$HANDSEED
5
FFFF
0
ENDSEC
0
SECTION
2
TABLES
0
TABLE
2
VPORT
5
8
100
AcDbSymbolTable
0
ENDTAB
0
TABLE
2
LTYPE
5
5
100
AcDbSymbolTable
0
LTYPE
5
14
100
AcDbSymbolTableRecord
100
AcDbLinetypeTableRecord
2
BYBLOCK
70
0
0
LTYPE
5
15
100
AcDbSymbolTableRecord
100
AcDbLinetypeTableRecord
2
BYLAYER
70
0
0
ENDTAB
0
TABLE
2
LAYER
5
2
100
AcDbSymbolTable
70
2
0
LAYER
5
50
100
AcDbSymbolTableRecord
100
AcDbLayerTableRecord
2
0
70
0
6
CONTINUOUS
0
ENDTAB
0
TABLE
2
STYLE
5
3
100
AcDbSymbolTable
70
1
0
STYLE
5
11
100
AcDbSymbolTableRecord
100
AcDbTextStyleTableRecord
2
STANDARD
70
0
0
ENDTAB
0
TABLE
2
VIEW
5
6
100
AcDbSymbolTable
70
0
0
ENDTAB
0
TABLE
2
UCS
5
7
100
AcDbSymbolTable
70
0
0
ENDTAB
0
TABLE
2
APPID
5
9
100
AcDbSymbolTable
70
2
0
APPID
5
12
100
AcDbSymbolTableRecord
100
AcDbRegAppTableRecord
2
ACAD
70
0
0
ENDTAB
0
TABLE
2
DIMSTYLE
5
A
100
AcDbSymbolTable
70
1
0
ENDTAB
0
TABLE
2
BLOCK_RECORD
5
1
100
AcDbSymbolTable
70
1
0
BLOCK_RECORD
5
1F
100
AcDbSymbolTableRecord
100
AcDbBlockTableRecord
2
*MODEL_SPACE
0
BLOCK_RECORD
5
1B
100
AcDbSymbolTableRecord
100
AcDbBlockTableRecord
2
*PAPER_SPACE
0
ENDTAB
0
ENDSEC
0
SECTION
2
BLOCKS
0
BLOCK
5
20
100
AcDbEntity
100
AcDbBlockBegin
2
*MODEL_SPACE
0
ENDBLK
5
21
100
AcDbEntity
100
AcDbBlockEnd
0
BLOCK
5
1C
100
AcDbEntity
100
AcDbBlockBegin
2
*PAPER_SPACE
0
ENDBLK
5
1D
100
AcDbEntity
100
AcDbBlockEnd
0
ENDSEC
0
SECTION
2
ENTITIES
0
CIRCLE
5
100
100
AcDbEntity
8
0
100
AcDbCircle
10
-8.5479999441204644
20
-11.517002153105704
30
0
40
0.83000000000000285
210
0
220
0
230
1
0
LWPOLYLINE
5
101
100
AcDbEntity
8
0
100
AcDbPolyline
90
15
70
1
43
0.0
10
-4.8482437374448226
20
-14.576758371199601
10
-4.8482437374448235
20
-8.3635392865508784
42
0.41421356237309437
10
-5.8482437374448226
20
-7.3635392865508802
10
-9.082659703753297
20
-7.3635392865508766
42
0.28011029195419318
10
-9.9704142352022274
20
-7.9032221220958752
10
-11.340979167710024
20
-10.546454491932341
42
0.1201614771304961
10
-11.453224636261094
20
-11.00677165638734
10
-11.453224636261094
20
-14.911876084499573
10
-11.987287251865034
20
-17.849220470321239
42
-0.36246460876200293
10
-12.971157161964941
20
-18.670335032121258
10
-15.016438963227099
20
-18.670335032121258
10
-15.016438963227099
20
-20.281103152530552
10
-11.800679991373777
20
-20.281103152530552
42
0.16877882050860635
10
-11.180625498559436
20
-20.065661898540533
10
-5.2281892446304825
20
-15.361317117209584
42
0.22939745638185241
0
LINE
5
102
100
AcDbEntity
8
0
100
AcDbLine
10
-15.016438963227099
20
-18.670335032121258
30
0
11
-15.016438963227099
21
-17.870335032121258
31
0
0
LINE
5
103
100
AcDbEntity
8
0
100
AcDbLine
10
-15.016438963227099
20
-20.281103152530552
30
0
11
-15.016438963227099
21
-21.081103152530552
31
0
0
LWPOLYLINE
5
104
100
AcDbEntity
8
0
100
AcDbPolyline
90
15
70
1
43
0.0
10
-10.684581904307963
20
-20.693308895348519
10
-4.7321456503790094
20
-15.988964114017566
42
0.22939745638185205
10
-4.0482437374448228
20
-14.576758371199601
10
-4.0482437374448228
20
-8.3635392865508766
42
0.41421356237309431
10
-5.8482437374448217
20
-6.5635392865508804
10
-9.082659703753297
20
-6.5635392865508768
42
0.2801102919541934
10
-10.680617860361373
20
-7.5349683905318745
10
-12.051182792869167
20
-10.178200760368339
42
0.12016147713049623
10
-12.253224636261095
20
-11.00677165638734
10
-12.253224636261095
20
-14.839740129499997
10
-12.774383179944962
20
-17.706112119761251
42
-0.36246460876199854
10
-12.971157161964941
20
-17.870335032121258
10
-15.8164389632271
20
-17.870335032121258
10
-15.8164389632271
20
-21.081103152530552
10
-11.800679991373764
20
-21.081103152530552
42
0.16877882050860862
0
ENDSEC
0
SECTION
2
OBJECTS
0
DICTIONARY
5
C
100
AcDbDictionary
3
ACAD_GROUP
350
D
3
ACAD_MLINESTYLE
350
17
0
DICTIONARY
5
D
100
AcDbDictionary
0
DICTIONARY
5
1A
330
C
100
AcDbDictionary
0
DICTIONARY
5
17
100
AcDbDictionary
0
ENDSEC
0
EOF
